<?xml version="1.0" encoding="UTF-8" standalone="no"?>
<svg
   width="192"
   height="192"
   viewBox="0 0 192 192"
   fill="none"
   version="1.1"
   id="svg2"
   sodipodi:docname="robot-icon.svg"
   inkscape:version="1.3.2 (091e20e, 2023-11-25)"
   xmlns:inkscape="http://www.inkscape.org/namespaces/inkscape"
   xmlns:sodipodi="http://sodipodi.sourceforge.net/DTD/sodipodi-0.dtd"
   xmlns="http://www.w3.org/2000/svg"
   xmlns:svg="http://www.w3.org/2000/svg">
  <defs
     id="defs2" />
  <sodipodi:namedview
     id="namedview2"
     pagecolor="#ffffff"
     bordercolor="#000000"
     borderopacity="0.25"
     inkscape:showpageshadow="2"
     inkscape:pageopacity="0.0"
     inkscape:pagecheckerboard="0"
     inkscape:deskcolor="#d1d1d1"
     inkscape:zoom="3.804908"
     inkscape:cx="159.26798"
     inkscape:cy="63.602063"
     inkscape:window-width="3440"
     inkscape:window-height="1387"
     inkscape:window-x="0"
     inkscape:window-y="25"
     inkscape:window-maximized="1"
     inkscape:current-layer="svg2" />
  <path
     fill-rule="evenodd"
     clip-rule="evenodd"
     d="m 37.271719,50.822067 c -8.582226,3.12014 -12.786429,12.256729 -9.335726,20.28823 2.957694,6.883856 10.555815,10.667724 18.000558,9.481008 L 84.68317,144.99171 70.362722,174.80599 H 64.38541 c -1.980762,0 -3.586388,1.5121 -3.586388,3.37775 v 5.62959 h 87.268758 v -5.62959 c 0,-1.86565 -1.60549,-3.37775 -3.58637,-3.37775 h -5.97731 v -33.7775 c 0,-7.46144 -6.42324,-13.51101 -14.34555,-13.51101 h -6.73524 L 79.933477,67.484282 140.27458,43.41376 l 1.7119,16.657149 c 0.0586,0.577146 0.57382,1.017492 1.18947,1.017492 h 16.95646 c 0.61566,0 1.13091,-0.440346 1.18948,-1.017492 l 2.98746,-29.072747 c -0.0382,0.05956 -0.0765,0.118785 -0.11596,0.177783 2.39212,-3.605524 2.97551,-8.200953 1.156,-12.435863 -2.98625,-6.949496 -11.33896,-10.3586595 -18.76398,-7.658935 l -92.350914,33.57416 c 1.814713,-0.101554 3.627632,0.05674 5.376116,0.459262 L 147.44616,13.181882 c 6.20803,-2.256901 13.19072,0.593131 15.68686,6.402975 2.49611,5.80973 -0.41722,12.431247 -6.54516,14.875613 l -23.95589,9.556218 -8.04306,-3.044367 c -6.16979,-2.335152 -13.06163,-2.327382 -19.22508,0.02184 L 71.460038,53.91541 70.902235,53.02222 C 65.869697,44.96347 54.878731,42.234475 46.281801,46.909167 c -1.016142,0.552488 -1.953984,1.184127 -2.809697,1.881745 0.173344,-0.141301 0.349913,-0.279903 0.52995,-0.415687 z m 3.065644,1.299308 -2.204672,0.801539 c -7.336196,2.667072 -10.930114,10.477217 -7.98031,17.342722 2.412921,5.615845 8.438771,8.818291 14.515546,8.217052 l -5.075217,-8.43548 c -3.494815,-5.80883 -2.971203,-12.736934 0.744653,-17.925833 z m 31.735349,2.775158 6.638165,10.629893 52.361023,-20.887106 -6.92889,-2.622261 c -5.88289,-2.226613 -12.45315,-2.219069 -18.33076,0.02083 z M 114.64983,127.51748 68.841378,54.163899 C 64.474352,47.170943 54.937071,44.802914 47.477263,48.859255 40.017457,52.915708 37.426293,61.878681 41.672935,68.937053 l 8.863997,14.732959 12.351998,3.188821 c 6.525074,1.684484 12.081704,5.724048 15.464505,11.242392 L 96.983046,128.4914 c 1.670539,-0.63276 3.481064,-0.97392 5.348974,-0.97392 z M 95.88812,128.95754 77.318163,98.664182 C 74.092686,93.402549 68.794396,89.550787 62.572969,87.944667 l -11.204474,-2.892478 34.534644,57.399461 3.358534,-6.99195 c 1.381118,-2.87558 3.74885,-5.1398 6.626447,-6.50216 z m 47.79471,-75.750557 -1.10101,-10.713662 14.9385,-5.959363 c 1.53257,-0.611148 2.8966,-1.440386 4.06816,-2.433556 l -1.96294,19.106581 z m 15.82673,1.125918 -0.46264,4.503666 h -14.78547 l -0.46264,-4.503666 z M 64.38541,177.05783 c -0.660254,0 -1.195463,0.5044 -1.195463,1.12591 v 3.37775 h 82.486923 v -3.37775 c 0,-0.62151 -0.53557,-1.12591 -1.19546,-1.12591 z m 8.060645,-1.12592 h 22.929452 l 3.599657,-8.01315 c 1.496956,-3.33272 4.965956,-5.49787 8.807926,-5.49787 h 28.33008 v -21.3924 c 0,-6.21845 -5.35209,-11.25917 -11.95462,-11.25917 h -21.82653 c -4.695654,0 -8.956522,2.58961 -10.891976,6.61814 z m 24.227486,0 h 39.439629 v -12.38509 h -28.33008 c -3.36176,0 -6.39715,1.89492 -7.70702,4.81105 z"
     fill="#ffffff"
     id="path1"
     style="fill:none;fill-opacity:1;stroke:#000000;stroke-width:7.81181;stroke-dasharray:none;stroke-opacity:1" />
</svg>
