<?xml version="1.0" encoding="UTF-8" standalone="no"?>
<svg
   width="192"
   height="192"
   viewBox="0 0 192 192"
   fill="none"
   version="1.1"
   id="svg2"
   sodipodi:docname="robot-icon.svg"
   inkscape:version="1.3.2 (091e20e, 2023-11-25)"
   xmlns:inkscape="http://www.inkscape.org/namespaces/inkscape"
   xmlns:sodipodi="http://sodipodi.sourceforge.net/DTD/sodipodi-0.dtd"
   xmlns="http://www.w3.org/2000/svg"
   xmlns:svg="http://www.w3.org/2000/svg">
  <defs
     id="defs2" />
  <sodipodi:namedview
     id="namedview2"
     pagecolor="#ffffff"
     bordercolor="#000000"
     borderopacity="0.25"
     inkscape:showpageshadow="2"
     inkscape:pageopacity="0.0"
     inkscape:pagecheckerboard="0"
     inkscape:deskcolor="#d1d1d1"
     inkscape:zoom="3.804908"
     inkscape:cx="159.00516"
     inkscape:cy="63.602064"
     inkscape:window-width="2560"
     inkscape:window-height="1387"
     inkscape:window-x="0"
     inkscape:window-y="25"
     inkscape:window-maximized="1"
     inkscape:current-layer="svg2" />
  <path
     fill-rule="evenodd"
     clip-rule="evenodd"
     d="M 24.261174,50.977263 C 14.309525,54.086909 9.4344787,63.19277 13.435793,71.197259 c 3.429638,6.860704 12.240153,10.631846 20.872816,9.449121 l 44.92922,64.18381 -16.605489,29.71401 h -6.931082 c -2.296822,0 -4.158649,1.50701 -4.158649,3.36639 v 5.61065 H 152.73641 v -5.61065 c 0,-1.85938 -1.86168,-3.36639 -4.15864,-3.36639 h -6.93108 v -33.6639 c 0,-7.43635 -7.44815,-13.46557 -16.6346,-13.46557 h -7.80994 L 73.730251,67.583439 143.69967,43.593872 145.68473,60.195 c 0.0679,0.575204 0.66539,1.014069 1.37928,1.014069 h 19.66211 c 0.7139,0 1.31136,-0.438865 1.37928,-1.014069 l 3.46416,-28.974969 c -0.0443,0.05936 -0.0887,0.118386 -0.13447,0.177185 2.77382,-3.593398 3.4503,-8.173371 1.34046,-12.394038 C 169.3128,12.077054 159.62729,8.679357 151.0175,11.370001 L 43.930615,44.831244 c 2.104277,-0.101213 4.206475,0.05655 6.233954,0.457717 L 152.01559,13.463671 c 7.19862,-2.24931 15.2955,0.591137 18.18993,6.381441 2.89441,5.79019 -0.48379,12.389437 -7.58954,14.825582 l -27.7784,9.524078 -9.32646,-3.034127 c -7.15426,-2.327299 -15.1458,-2.319554 -22.29272,0.02177 L 63.904749,54.060202 63.25794,53.170017 C 57.422385,45.138371 44.677648,42.418553 34.708948,47.077524 c -1.178283,0.55063 -2.26577,1.180144 -3.258025,1.875416 0.201003,-0.140826 0.405746,-0.278962 0.614511,-0.41429 z m 3.554813,1.294938 -2.556461,0.798844 c -8.506795,2.658101 -12.674177,10.44198 -9.253687,17.284393 2.797938,5.596959 9.785302,8.788634 16.831718,8.189416 L 26.952513,70.137745 C 22.900048,64.348452 23.50721,57.443649 27.815987,52.272201 Z m 36.799197,2.765825 7.697384,10.594142 60.716002,-20.816858 -8.0345,-2.613441 c -6.82158,-2.219124 -14.44022,-2.211606 -21.2557,0.02076 z M 113.98612,127.41473 60.868242,54.307857 c -5.063849,-6.969438 -16.122946,-9.329502 -24.773077,-5.286804 -8.65013,4.04281 -11.654753,12.975638 -6.730497,20.010272 l 10.27838,14.683407 14.322944,3.178097 c 7.566247,1.678819 14.00952,5.704797 17.932097,11.204581 l 21.602244,30.28796 c 1.9371,-0.63063 4.036524,-0.97064 6.202488,-0.97064 z M 92.230697,128.84995 70.697625,98.658474 C 66.957475,93.414537 60.813763,89.57573 53.599615,87.975011 L 40.6073,85.09226 80.652461,142.29867 84.5469,135.33024 c 1.601495,-2.86592 4.347036,-5.12252 7.683797,-6.48029 z m 55.421073,-75.495792 -1.2767,-10.677629 17.32216,-5.93932 c 1.77712,-0.609093 3.3588,-1.435542 4.7173,-2.425372 l -2.27617,19.042321 z m 18.35212,1.122131 -0.53647,4.48852 h -17.14471 l -0.53647,-4.48852 z M 55.701258,176.78847 c -0.765607,0 -1.386217,0.5027 -1.386217,1.12212 v 3.36638 h 95.648939 v -3.36638 c 0,-0.61942 -0.62102,-1.12212 -1.38621,-1.12212 z m 9.346842,-1.12214 h 26.588187 l 4.174037,-7.9862 c 1.73582,-3.32151 5.758346,-5.47937 10.213366,-5.47937 h 32.85055 V 140.8803 c 0,-6.19753 -6.20608,-11.2213 -13.86215,-11.2213 H 99.702821 c -5.444921,0 -10.385673,2.5809 -12.629958,6.59588 z m 28.093342,0 H 138.87424 V 163.3229 h -32.85055 c -3.89818,0 -7.417921,1.88854 -8.9368,4.79486 z"
     fill="#ffffff"
     id="path1"
     style="stroke:none;stroke-width:8.39784;stroke-dasharray:none;stroke-opacity:1" />
</svg>
