<?xml version="1.0" encoding="UTF-8" standalone="no"?>
<svg
   width="192"
   height="192"
   viewBox="0 0 192 192"
   fill="none"
   version="1.1"
   id="svg2"
   sodipodi:docname="robot-icon.svg"
   inkscape:version="1.3.2 (091e20e, 2023-11-25)"
   xmlns:inkscape="http://www.inkscape.org/namespaces/inkscape"
   xmlns:sodipodi="http://sodipodi.sourceforge.net/DTD/sodipodi-0.dtd"
   xmlns="http://www.w3.org/2000/svg"
   xmlns:svg="http://www.w3.org/2000/svg">
  <defs
     id="defs2" />
  <sodipodi:namedview
     id="namedview2"
     pagecolor="#ffffff"
     bordercolor="#000000"
     borderopacity="0.25"
     inkscape:showpageshadow="2"
     inkscape:pageopacity="0.0"
     inkscape:pagecheckerboard="0"
     inkscape:deskcolor="#d1d1d1"
     inkscape:zoom="1.2291667"
     inkscape:cx="96"
     inkscape:cy="96"
     inkscape:window-width="1312"
     inkscape:window-height="449"
     inkscape:window-x="0"
     inkscape:window-y="37"
     inkscape:window-maximized="0"
     inkscape:current-layer="svg2" />
  <path
     fill-rule="evenodd"
     clip-rule="evenodd"
     d="M41.3195 53.8818C34.1405 56.653 30.6237 64.7678 33.5102 71.9011C35.9843 78.0151 42.3401 81.3758 48.5676 80.3218L80.979 137.52L69 164H64C62.3431 164 61 165.343 61 167V172H134V167C134 165.343 132.657 164 131 164H126V134C126 127.373 120.627 122 114 122L108.366 122L77.0059 68.6806L127.481 47.302L128.913 62.0963C128.962 62.6089 129.393 63 129.908 63H144.092C144.607 63 145.038 62.6089 145.087 62.0963L147.586 36.2749C147.554 36.3278 147.522 36.3804 147.489 36.4328C149.49 33.2305 149.978 29.149 148.456 25.3877C145.958 19.2154 138.971 16.1875 132.76 18.5853L55.5088 48.4047C57.0268 48.3145 58.5433 48.4551 60.0059 48.8126L133.48 20.4511C138.673 18.4466 144.514 20.9779 146.602 26.138C148.69 31.298 146.253 37.179 141.127 39.35L121.088 47.8375L114.36 45.1336C109.199 43.0596 103.434 43.0665 98.2783 45.153L69.9179 56.6292L69.4513 55.8359C65.2416 48.6784 56.0477 46.2546 48.8564 50.4065C48.0064 50.8972 47.2219 51.4582 46.5061 52.0778C46.6511 51.9523 46.7988 51.8292 46.9494 51.7086L41.3195 53.8818ZM43.8839 55.0358L42.0397 55.7477C35.903 58.1165 32.8967 65.0532 35.3642 71.1509C37.3826 76.1387 42.4232 78.983 47.5064 78.449L43.261 70.9569C40.3376 65.7977 40.7756 59.6444 43.8839 55.0358ZM70.4304 57.5006L75.9832 66.9417L119.783 48.3905L113.987 46.0615C109.066 44.0839 103.57 44.0906 98.6534 46.08L70.4304 57.5006ZM106.046 122L67.7274 56.8499C64.0744 50.639 56.0965 48.5358 49.8564 52.1385C43.6163 55.7413 41.4488 63.7019 45.0011 69.9709L52.4158 83.0562L62.7482 85.8884C68.2064 87.3845 72.8545 90.9723 75.6842 95.8735L91.2678 122.865C92.6652 122.303 94.1797 122 95.7422 122L106.046 122ZM90.3519 123.279L74.8182 96.3735C72.1201 91.7003 67.6881 88.2793 62.4839 86.8528L53.1114 84.2838L81.9995 135.264L84.8089 129.054C85.9642 126.5 87.9448 124.489 90.3519 123.279ZM130.332 56L129.411 46.4845L141.907 41.1916C143.189 40.6488 144.33 39.9123 145.31 39.0302L143.668 56H130.332ZM143.571 57L143.184 61H130.816L130.429 57H143.571ZM64 166C63.4477 166 63 166.448 63 167V170H132V167C132 166.448 131.552 166 131 166H64ZM70.7427 165H89.9231L92.9342 157.883C94.1864 154.923 97.0882 153 100.302 153H124V134C124 128.477 119.523 124 114 124H95.7422C91.8143 124 88.2501 126.3 86.6311 129.878L70.7427 165ZM91.0089 165H124V154H100.302C97.4899 154 94.9508 155.683 93.8551 158.273L91.0089 165Z"
     fill="white"
     id="path1"
     style="stroke:none;stroke-opacity:1;stroke-width:3;stroke-dasharray:none" />
  <path
     fill-rule="evenodd"
     clip-rule="evenodd"
     d="M128 64C127.448 64 127 64.4477 127 65V69C127 69.5523 127.448 70 128 70H129V71C129 71.5523 129.448 72 130 72H144C144.552 72 145 71.5523 145 71V70H152C152.552 70 153 69.5523 153 69V65C153 64.4477 152.552 64 152 64H128ZM129 68V66H151V68H129ZM131 69V70H143V69H131Z"
     fill="white"
     id="path2"
     style="stroke:none" />
</svg>
